<mxfile host="app.diagrams.net" modified="2024-03-29T10:13:54.529Z" agent="Mozilla/5.0 (Windows NT 10.0; Win64; x64) AppleWebKit/537.36 (KHTML, like Gecko) Chrome/123.0.0.0 Safari/537.36" etag="TxCFQfFJFT-Kj7lG2tXu" version="24.2.1" type="device">
  <diagram name="Page-1" id="GnNjGOGsEOdIrBXvKdEH">
    <mxGraphModel dx="1400" dy="1807" grid="1" gridSize="10" guides="1" tooltips="1" connect="1" arrows="1" fold="1" page="1" pageScale="1" pageWidth="850" pageHeight="1100" math="0" shadow="0">
      <root>
        <mxCell id="0" />
        <mxCell id="1" parent="0" />
        <mxCell id="qIofgSPu_R2zxOQjdoU7-1" value="&lt;div style=&quot;color: rgb(169, 183, 198); font-family: &amp;quot;JetBrains Mono&amp;quot;, monospace; font-size: 9.8pt; white-space: pre;&quot;&gt;&lt;span style=&quot;background-color: rgb(255, 255, 255);&quot;&gt;Invtntory&lt;/span&gt;&lt;/div&gt;" style="swimlane;childLayout=stackLayout;horizontal=1;startSize=50;horizontalStack=0;rounded=1;fontSize=14;fontStyle=0;strokeWidth=2;resizeParent=0;resizeLast=1;shadow=0;dashed=0;align=center;arcSize=4;whiteSpace=wrap;html=1;" vertex="1" parent="1">
          <mxGeometry x="40" y="-540" width="160" height="240" as="geometry" />
        </mxCell>
        <mxCell id="qIofgSPu_R2zxOQjdoU7-2" value="&lt;div style=&quot;font-family: &amp;quot;JetBrains Mono&amp;quot;, monospace; font-size: 9.8pt; white-space-collapse: preserve;&quot;&gt;&lt;span style=&quot;background-color: rgb(255, 255, 255);&quot;&gt; &lt;/span&gt;&lt;span style=&quot;font-size: 9.8pt; color: rgb(204, 120, 50);&quot;&gt;int : &lt;/span&gt;&lt;span style=&quot;font-size: 9.8pt; color: rgb(152, 118, 170);&quot;&gt;quantity&lt;/span&gt;&lt;/div&gt;&lt;div style=&quot;font-family: &amp;quot;JetBrains Mono&amp;quot;, monospace; font-size: 9.8pt; white-space-collapse: preserve;&quot;&gt;&lt;font color=&quot;#9876aa&quot;&gt;  double : price &lt;/font&gt;&lt;/div&gt;&lt;div style=&quot;font-family: &amp;quot;JetBrains Mono&amp;quot;, monospace; font-size: 9.8pt; white-space-collapse: preserve;&quot;&gt;&lt;font color=&quot;#9876aa&quot;&gt;List : Product_Id&lt;/font&gt;&lt;/div&gt;" style="align=left;strokeColor=none;fillColor=none;spacingLeft=4;fontSize=12;verticalAlign=top;resizable=0;rotatable=0;part=1;html=1;" vertex="1" parent="qIofgSPu_R2zxOQjdoU7-1">
          <mxGeometry y="50" width="160" height="190" as="geometry" />
        </mxCell>
        <mxCell id="qIofgSPu_R2zxOQjdoU7-4" style="edgeStyle=orthogonalEdgeStyle;rounded=0;orthogonalLoop=1;jettySize=auto;html=1;exitX=0.5;exitY=1;exitDx=0;exitDy=0;" edge="1" parent="qIofgSPu_R2zxOQjdoU7-1" source="qIofgSPu_R2zxOQjdoU7-2" target="qIofgSPu_R2zxOQjdoU7-2">
          <mxGeometry relative="1" as="geometry" />
        </mxCell>
        <mxCell id="qIofgSPu_R2zxOQjdoU7-5" value="Product&amp;nbsp;" style="swimlane;childLayout=stackLayout;horizontal=1;startSize=50;horizontalStack=0;rounded=1;fontSize=14;fontStyle=0;strokeWidth=2;resizeParent=0;resizeLast=1;shadow=0;dashed=0;align=center;arcSize=4;whiteSpace=wrap;html=1;" vertex="1" parent="1">
          <mxGeometry x="280" y="-550" width="160" height="220" as="geometry" />
        </mxCell>
        <mxCell id="qIofgSPu_R2zxOQjdoU7-6" value="int : inventory _id&amp;nbsp;&lt;br&gt;String : name&amp;nbsp;&lt;div&gt;String : Descraption&amp;nbsp;&lt;/div&gt;&lt;div&gt;String :category&amp;nbsp;&lt;/div&gt;&lt;div&gt;Date : creation_Date&lt;/div&gt;&lt;div&gt;&lt;br&gt;&lt;/div&gt;" style="align=left;strokeColor=none;fillColor=none;spacingLeft=4;fontSize=12;verticalAlign=top;resizable=0;rotatable=0;part=1;html=1;" vertex="1" parent="qIofgSPu_R2zxOQjdoU7-5">
          <mxGeometry y="50" width="160" height="170" as="geometry" />
        </mxCell>
        <mxCell id="qIofgSPu_R2zxOQjdoU7-7" value="Client&amp;nbsp;" style="swimlane;childLayout=stackLayout;horizontal=1;startSize=50;horizontalStack=0;rounded=1;fontSize=14;fontStyle=0;strokeWidth=2;resizeParent=0;resizeLast=1;shadow=0;dashed=0;align=center;arcSize=4;whiteSpace=wrap;html=1;" vertex="1" parent="1">
          <mxGeometry x="920" y="-560" width="160" height="140" as="geometry" />
        </mxCell>
        <mxCell id="qIofgSPu_R2zxOQjdoU7-8" value="String : Frst_Name&lt;div&gt;String : Last_Name&lt;br&gt;&lt;/div&gt;&lt;div&gt;String : Mobile&lt;br&gt;&lt;/div&gt;&lt;div&gt;String : Email&lt;br&gt;&lt;/div&gt;&lt;div&gt;String : Addres&lt;br&gt;&lt;/div&gt;" style="align=left;strokeColor=none;fillColor=none;spacingLeft=4;fontSize=12;verticalAlign=top;resizable=0;rotatable=0;part=1;html=1;" vertex="1" parent="qIofgSPu_R2zxOQjdoU7-7">
          <mxGeometry y="50" width="160" height="90" as="geometry" />
        </mxCell>
        <mxCell id="qIofgSPu_R2zxOQjdoU7-10" value="Saller" style="swimlane;childLayout=stackLayout;horizontal=1;startSize=50;horizontalStack=0;rounded=1;fontSize=14;fontStyle=0;strokeWidth=2;resizeParent=0;resizeLast=1;shadow=0;dashed=0;align=center;arcSize=4;whiteSpace=wrap;html=1;" vertex="1" parent="1">
          <mxGeometry x="940" y="-270" width="160" height="140" as="geometry" />
        </mxCell>
        <mxCell id="qIofgSPu_R2zxOQjdoU7-11" value="String : Frst_Name&lt;div&gt;String : Last_Name&lt;/div&gt;&lt;div&gt;String : Email&lt;/div&gt;" style="align=left;strokeColor=none;fillColor=none;spacingLeft=4;fontSize=12;verticalAlign=top;resizable=0;rotatable=0;part=1;html=1;" vertex="1" parent="qIofgSPu_R2zxOQjdoU7-10">
          <mxGeometry y="50" width="160" height="90" as="geometry" />
        </mxCell>
        <mxCell id="qIofgSPu_R2zxOQjdoU7-14" value="Sales" style="swimlane;childLayout=stackLayout;horizontal=1;startSize=50;horizontalStack=0;rounded=1;fontSize=14;fontStyle=0;strokeWidth=2;resizeParent=0;resizeLast=1;shadow=0;dashed=0;align=center;arcSize=4;whiteSpace=wrap;html=1;" vertex="1" parent="1">
          <mxGeometry x="570" y="-610" width="160" height="220" as="geometry" />
        </mxCell>
        <mxCell id="qIofgSPu_R2zxOQjdoU7-15" value="int : client _id&lt;br&gt;&lt;div&gt;&lt;span style=&quot;background-color: initial;&quot;&gt;int : Saller_id&lt;/span&gt;&lt;/div&gt;&lt;div&gt;List &amp;lt;Transaction_Id&amp;gt;&lt;/div&gt;&lt;div&gt;&lt;span style=&quot;background-color: initial;&quot;&gt;int : Total_Price&lt;/span&gt;&amp;nbsp;&lt;br&gt;&lt;br&gt;&lt;/div&gt;" style="align=left;strokeColor=none;fillColor=none;spacingLeft=4;fontSize=12;verticalAlign=top;resizable=0;rotatable=0;part=1;html=1;" vertex="1" parent="qIofgSPu_R2zxOQjdoU7-14">
          <mxGeometry y="50" width="160" height="170" as="geometry" />
        </mxCell>
        <mxCell id="qIofgSPu_R2zxOQjdoU7-16" value="Transaction" style="swimlane;childLayout=stackLayout;horizontal=1;startSize=50;horizontalStack=0;rounded=1;fontSize=14;fontStyle=0;strokeWidth=2;resizeParent=0;resizeLast=1;shadow=0;dashed=0;align=center;arcSize=4;whiteSpace=wrap;html=1;" vertex="1" parent="1">
          <mxGeometry x="460" y="-260" width="160" height="220" as="geometry" />
        </mxCell>
        <mxCell id="qIofgSPu_R2zxOQjdoU7-17" value="int : Product_id&lt;br&gt;&lt;div&gt;&lt;span style=&quot;background-color: initial;&quot;&gt;int : Sals_id&lt;/span&gt;&lt;/div&gt;&lt;div&gt;&lt;span style=&quot;background-color: initial;&quot;&gt;int : Price&lt;/span&gt;&amp;nbsp;&lt;/div&gt;&lt;div&gt;&lt;span style=&quot;background-color: initial;&quot;&gt;int : Quantity&lt;/span&gt;&lt;br&gt;&lt;br&gt;&lt;/div&gt;" style="align=left;strokeColor=none;fillColor=none;spacingLeft=4;fontSize=12;verticalAlign=top;resizable=0;rotatable=0;part=1;html=1;" vertex="1" parent="qIofgSPu_R2zxOQjdoU7-16">
          <mxGeometry y="50" width="160" height="170" as="geometry" />
        </mxCell>
        <mxCell id="qIofgSPu_R2zxOQjdoU7-18" value="" style="edgeStyle=entityRelationEdgeStyle;fontSize=12;html=1;endArrow=ERoneToMany;rounded=0;entryX=-0.013;entryY=0.178;entryDx=0;entryDy=0;entryPerimeter=0;exitX=0.373;exitY=1.022;exitDx=0;exitDy=0;exitPerimeter=0;" edge="1" parent="1" source="qIofgSPu_R2zxOQjdoU7-6" target="qIofgSPu_R2zxOQjdoU7-17">
          <mxGeometry width="100" height="100" relative="1" as="geometry">
            <mxPoint x="340" y="-280" as="sourcePoint" />
            <mxPoint x="440" y="-200" as="targetPoint" />
          </mxGeometry>
        </mxCell>
        <mxCell id="qIofgSPu_R2zxOQjdoU7-19" value="" style="edgeStyle=entityRelationEdgeStyle;fontSize=12;html=1;endArrow=ERoneToMany;rounded=0;exitX=0.5;exitY=1;exitDx=0;exitDy=0;entryX=1;entryY=0.25;entryDx=0;entryDy=0;" edge="1" parent="1" source="qIofgSPu_R2zxOQjdoU7-15" target="qIofgSPu_R2zxOQjdoU7-17">
          <mxGeometry width="100" height="100" relative="1" as="geometry">
            <mxPoint x="769.52" y="-319.9999999999999" as="sourcePoint" />
            <mxPoint x="580" y="-270" as="targetPoint" />
            <Array as="points">
              <mxPoint x="740" y="-225.61" />
              <mxPoint x="700" y="-225.61" />
              <mxPoint x="720" y="-255.61" />
              <mxPoint x="720" y="-245.61" />
            </Array>
          </mxGeometry>
        </mxCell>
        <mxCell id="qIofgSPu_R2zxOQjdoU7-20" value="" style="edgeStyle=entityRelationEdgeStyle;fontSize=12;html=1;endArrow=ERoneToMany;rounded=0;entryX=1;entryY=0.5;entryDx=0;entryDy=0;exitX=0.456;exitY=-0.001;exitDx=0;exitDy=0;exitPerimeter=0;" edge="1" parent="1" source="qIofgSPu_R2zxOQjdoU7-7" target="qIofgSPu_R2zxOQjdoU7-15">
          <mxGeometry width="100" height="100" relative="1" as="geometry">
            <mxPoint x="1000" y="-539.997818467882" as="sourcePoint" />
            <mxPoint x="750" y="-488.22" as="targetPoint" />
          </mxGeometry>
        </mxCell>
        <mxCell id="qIofgSPu_R2zxOQjdoU7-21" value="" style="edgeStyle=entityRelationEdgeStyle;fontSize=12;html=1;endArrow=ERoneToMany;rounded=0;entryX=1.027;entryY=0.899;entryDx=0;entryDy=0;entryPerimeter=0;exitX=0.5;exitY=0;exitDx=0;exitDy=0;" edge="1" parent="1" source="qIofgSPu_R2zxOQjdoU7-10" target="qIofgSPu_R2zxOQjdoU7-15">
          <mxGeometry width="100" height="100" relative="1" as="geometry">
            <mxPoint x="1010" y="-280" as="sourcePoint" />
            <mxPoint x="660" y="-380" as="targetPoint" />
            <Array as="points">
              <mxPoint x="950" y="-310" />
            </Array>
          </mxGeometry>
        </mxCell>
        <mxCell id="qIofgSPu_R2zxOQjdoU7-23" value="" style="edgeStyle=entityRelationEdgeStyle;fontSize=12;html=1;endArrow=ERoneToMany;rounded=0;exitX=0.356;exitY=1.011;exitDx=0;exitDy=0;exitPerimeter=0;entryX=-0.033;entryY=0.802;entryDx=0;entryDy=0;entryPerimeter=0;" edge="1" parent="1" source="qIofgSPu_R2zxOQjdoU7-2" target="qIofgSPu_R2zxOQjdoU7-6">
          <mxGeometry width="100" height="100" relative="1" as="geometry">
            <mxPoint x="110" y="-160" as="sourcePoint" />
            <mxPoint x="270" y="-360" as="targetPoint" />
            <Array as="points">
              <mxPoint x="-130" y="-30" />
            </Array>
          </mxGeometry>
        </mxCell>
      </root>
    </mxGraphModel>
  </diagram>
</mxfile>
